<svg width="82" height="28" viewBox="0 0 82 28" fill="none" xmlns="http://www.w3.org/2000/svg">
<path d="M30.7515 21.5687L36.4209 6.81191H39.2454L44.9148 21.5687H41.9675L40.7395 18.253H34.8654L33.6374 21.5687H30.7515ZM35.725 15.8993H39.8594L37.7922 10.2913L35.725 15.8993ZM45.2691 21.5687V6.64818H47.8479V21.5687H45.2691ZM54.0976 25.5597C51.2117 25.5597 49.2674 24.2498 48.9399 21.7733H51.5392C51.6825 22.8376 52.624 23.4926 54.0976 23.4926C55.694 23.4926 56.6764 22.6125 56.6764 21.1389V19.8085C56.1648 20.5248 55.0391 21.0365 53.7087 21.0365C50.6387 21.0365 48.7352 18.9693 48.7352 15.9198C48.7352 12.8497 50.6387 10.7825 53.6473 10.7825C54.9367 10.7825 56.0624 11.3147 56.6764 12.1129V10.9463H59.2553V20.8728C59.2553 23.7791 57.2495 25.5597 54.0976 25.5597ZM54.0976 18.8261C55.7554 18.8261 56.8197 17.6799 56.8197 15.9198C56.8197 14.1801 55.7554 13.0134 54.0976 13.0134C52.4398 13.0134 51.355 14.1596 51.355 15.9198C51.355 17.6799 52.4398 18.8261 54.0976 18.8261ZM60.0884 16.2472C60.0884 13.4842 61.7871 10.7825 65.2665 10.7825C68.7459 10.7825 70.4242 13.4023 70.4242 15.9607C70.4242 16.3905 70.3833 16.9022 70.3833 16.9022H62.6263C62.8514 18.6009 63.9157 19.5629 65.4712 19.5629C66.6583 19.5629 67.5588 19.0307 67.8044 18.0893H70.3628C70.0149 20.402 68.0296 21.7324 65.4098 21.7324C61.9099 21.7324 60.0884 19.0307 60.0884 16.2472ZM62.7081 14.9578H67.6407C67.5384 13.6888 66.7197 12.7474 65.2665 12.7474C63.9362 12.7474 63.0356 13.5456 62.7081 14.9578ZM70.7624 16.2472C70.7624 13.4842 72.4612 10.7825 75.9406 10.7825C79.42 10.7825 81.0983 13.4023 81.0983 15.9607C81.0983 16.3905 81.0573 16.9022 81.0573 16.9022H73.3003C73.5255 18.6009 74.5897 19.5629 76.1452 19.5629C77.3323 19.5629 78.2329 19.0307 78.4785 18.0893H81.0369C80.6889 20.402 78.7036 21.7324 76.0838 21.7324C72.584 21.7324 70.7624 19.0307 70.7624 16.2472ZM73.3822 14.9578H78.3148C78.2124 13.6888 77.3937 12.7474 75.9406 12.7474C74.6102 12.7474 73.7097 13.5456 73.3822 14.9578Z" fill="white"/>
<g clip-path="url(#clip0_103_244)">
<path d="M11.0497 0.465429C11.0934 0.459334 11.137 0.459334 11.1807 0.46421C11.7577 0.532476 12.3021 0.561123 12.8274 0.675102C14.5189 1.04081 15.5744 2.08551 15.8709 3.77265C16.0733 4.92585 16.1212 6.10586 16.2603 7.27125C16.3212 7.78203 16.4091 8.29341 16.5364 8.79138C16.7093 9.46611 17.1645 9.96165 17.6935 10.3962C18.4408 11.0106 19.2078 11.6031 19.9257 12.2492C20.8926 13.1201 21.039 14.4318 20.3439 15.5363C20.1982 15.7679 20.0229 15.983 19.89 16.222C19.1605 17.5306 18.9969 18.8654 19.6858 20.2527C20.1496 21.1864 20.6392 22.1141 20.828 23.1552C20.9547 23.8518 20.9461 24.5503 20.7801 25.2379C20.6023 25.9736 20.1705 26.5514 19.5056 26.9128C18.3178 27.5589 17.0931 27.618 15.8691 27.0006C14.5177 26.3185 13.9462 25.0745 14.1787 23.4892C14.3331 22.4359 14.9409 21.6527 15.6138 20.8951C15.9515 20.5148 16.2922 20.1369 16.6392 19.7644C17.0347 19.3396 17.2094 18.8276 17.2118 18.2657C17.2149 17.4477 17.0218 16.9613 16.6392 16.222C16.2732 15.5143 16.2603 15.3159 15.0727 15.3159C14.1273 15.3323 13.4311 15.4278 12.9488 16.222C12.7225 16.595 12.4777 17.0549 12.2409 17.4212C11.9844 17.8174 11.4656 18.1974 10.9962 18.2364C10.3055 18.2937 9.58669 18.4379 9.04662 17.9765C8.72923 17.7059 8.56382 17.1082 8.24027 16.8443C7.85275 16.5285 7.36399 16.0281 6.86637 16.0312C6.35091 16.0348 5.91357 16.2012 5.68291 16.6888C5.44794 17.185 5.5808 17.8835 5.97508 18.2364C6.26233 18.4936 6.57481 18.7252 6.88605 18.9544C7.67031 19.5316 8.16978 20.2441 8.09719 21.2669C8.05844 21.8149 7.88498 22.2744 7.3972 22.578C7.01707 22.8145 6.63693 23.0516 6.25741 23.2893C5.71305 23.6306 5.5402 24.1164 5.67921 24.7302C5.68045 24.7362 5.68229 24.743 5.68352 24.749C5.99538 26.1546 4.98722 27.5284 3.54111 27.6595C3.03119 27.7058 2.51634 27.6631 2.0015 27.5504C1.26522 27.3882 0.77867 26.9354 0.514175 26.2387C0.234302 25.5012 0.169101 24.7436 0.287201 23.9677C0.354863 23.5264 0.563998 23.1655 0.928756 22.9016C1.34826 22.5981 1.77391 22.3037 2.19895 22.0087C2.34596 21.9063 2.49727 21.8106 2.64859 21.7149C4.06825 20.8238 4.15683 19.6651 3.69919 18.0353C3.57986 17.6098 3.29015 17.2234 3.04041 16.8443C2.64675 16.2482 2.27953 15.6661 2.22724 14.9133C2.14236 13.6986 2.59508 12.7855 3.66782 12.2211C4.22203 11.9298 4.83529 11.75 5.42087 11.5159C6.06243 11.2587 6.73658 11.0569 7.33569 10.7241C8.43673 10.1122 8.62496 8.96448 7.86653 7.95574C7.50054 7.46935 7.08658 7.00551 6.80055 6.47584C5.74749 4.52723 6.05381 1.50465 9.39568 0.707406C9.94497 0.576361 10.5164 0.538571 11.0509 0.466648L11.0497 0.465429Z" fill="white"/>
</g>
<defs>
<clipPath id="clip0_103_244">
<rect width="20.6842" height="27.216" fill="white" transform="translate(0.23114 0.460693)"/>
</clipPath>
</defs>
</svg>
